<?xml version="1.0" encoding="UTF-8"?>
<svg id="Layer_2" data-name="Layer 2" xmlns="http://www.w3.org/2000/svg" viewBox="0 0 679.1 171.28">
  <defs>
    <style>
      .cls-1 {
        fill: #f4f6f8;
      }
    </style>
  </defs>
  <g id="Layer_2-2" data-name="Layer 2">
    <path class="cls-1" d="M679.1,42.2c0-2.56-2.07-4.63-4.63-4.63H108.05c-4.12,0-6.18-4.98-3.28-7.89l21.7-21.78c2.91-2.92.84-7.89-3.28-7.89h-26.3c-1.23,0-2.41.49-3.28,1.36l-34.72,34.85c-.87.87-2.05,1.36-3.28,1.36H4.63c-2.56,0-4.63,2.07-4.63,4.63h0c0,2.56,2.07,4.63,4.63,4.63h32.37c4.12,0,6.19,4.98,3.28,7.89L7.87,87.22c-2.91,2.92-.84,7.89,3.28,7.89h71.68c1.23,0,2.4-.49,3.27-1.36l2.21-2.21c2.91-2.92.85-7.9-3.27-7.9h-23.18c-4.12,0-6.19-4.98-3.27-7.9l27.57-27.57c.87-.87,2.04-1.36,3.27-1.36h65.85c4.12,0,6.19,4.98,3.28,7.9l-32.05,32.14c-2.91,2.92-.84,7.9,3.28,7.9h111.05c1.2,0,2.35-.47,3.22-1.3l10.5-10.16,35.23-35.11c.87-.86,2.04-1.35,3.27-1.35h27.78c4.12,0,6.19,4.98,3.28,7.9l-42.34,42.46h.1l-66.21,66.21c-2.92,2.92-.85,7.9,3.27,7.9h26.14c1.23,0,2.41-.49,3.28-1.36l71.15-71.38c.87-.87,2.05-1.36,3.28-1.36h81.2c1.2,0,2.35-.47,3.22-1.3l10.5-10.16,37.66-37.54c.87-.86,2.04-1.35,3.27-1.35h30.88c4.12,0,6.19,4.98,3.28,7.9l-34.47,34.56c-2.91,2.92-.84,7.9,3.28,7.9h111.05c1.2,0,2.35-.47,3.22-1.3l10.5-10.16,37.66-37.54c.87-.86,2.04-1.35,3.27-1.35h47.2c2.56,0,4.63-2.07,4.63-4.63h0ZM214.1,83.29h-33.85c-4.13,0-6.19-4.99-3.27-7.91l25.79-25.69c.87-.86,2.04-1.35,3.27-1.35h33.85c4.13,0,6.19,4.99,3.27,7.91l-25.79,25.69c-.87.86-2.04,1.35-3.27,1.35ZM545.89,85.71h-33.85c-4.13,0-6.19-4.99-3.27-7.91l25.79-25.69c.87-.86,2.04-1.35,3.27-1.35h33.85c4.13,0,6.19,4.99,3.27,7.91l-25.79,25.69c-.87.86-2.04,1.35-3.27,1.35ZM344.76,73.18l21.15-21.06c.87-.86,2.04-1.35,3.27-1.35h33.85c4.13,0,6.19,4.99,3.27,7.91l-25.79,25.69c-.87.86-2.04,1.35-3.27,1.35h-33.82c-4.12,0-6.19-4.98-3.28-7.89l4.62-4.64Z"/>
  </g>
</svg>